<?xml version="1.0" encoding="utf-8"?>
<!-- Generator: Adobe Illustrator 26.0.2, SVG Export Plug-In . SVG Version: 6.00 Build 0)  -->
<svg version="1.1" id="Logotyper" xmlns="http://www.w3.org/2000/svg" xmlns:xlink="http://www.w3.org/1999/xlink" x="0px" y="0px"
	 viewBox="0 0 442.76 412.35" style="enable-background:new 0 0 442.76 412.35;" xml:space="preserve">
<style type="text/css">
	.st0{fill:#002F5F;}
</style>
<g>
	<g>
		<path class="st0" d="M197.86,67.86c0.15,0.16,0.07,0.27-0.08,0.4c-0.28,0.22-1.82,2.48-1.99,2.76c-0.11,0.19-0.13-0.14-0.07-0.33
			c0.18-0.53,0.7-2.67-1.1-4.27c-1.28-1.13-3.25-0.47-3.97,0.6c-0.97,1.43-0.99,2.73,0,6.47c1.03,3.9,0.6,5.33-0.82,6.98
			c-1.32,1.52-4.38,2.35-7.08,0.48c-2.77-1.93-2.88-2.37-3.31-2.54c-0.34-0.14-0.33-0.41,0.01-0.81c0.49-0.58,2.13-2.81,2.41-3.23
			c0.19-0.28,0.23,0.04,0.03,0.46c-0.26,0.57-1.22,3.33,1.07,4.88c2.22,1.5,3.65,0.52,4.4-0.37c0.83-0.98,1.3-1.93,0.14-6.4
			c-1.23-4.71-0.38-6.26,1.4-7.65c1.84-1.44,4.28-1.53,6.27,0.04c1.07,0.84,1.61,1.43,2.02,1.82c0.23,0.22,0.35,0.47,0.47,0.58
			C197.74,67.81,197.79,67.77,197.86,67.86z"/>
		<path class="st0" d="M50.06,121.13c0.07-0.16,0.25-0.08,0.48,0c0.58,0.21,2.37,0.5,2.96,0.52c0.5,0.02-0.34,0.38-0.6,0.41
			c-0.7,0.09-2.1,0.5-2.72,2.83c-0.44,1.65,0.56,2.97,1.83,3.23c2.05,0.42,3.13-0.36,6.14-2.78c3.09-2.48,5.18-2.79,7.15-2.23
			c1.83,0.52,4,2.93,3.28,6.02c-0.62,2.69-1.36,3.19-1.58,3.76c-0.13,0.35-0.28,0.47-0.79,0.33c-0.65-0.18-3.11-0.54-3.56-0.59
			c-0.79-0.09-0.46-0.39,0-0.45c1.27-0.16,4.03-0.5,4.58-3.22c0.41-2.02-0.95-2.98-2.14-3.27c-1.26-0.31-2.62-0.27-6.16,2.66
			c-3.81,3.16-5.44,3.15-7.49,2.21c-2.17-0.99-3.08-2.95-2.61-5.59c0.3-1.68,1.04-3.16,1.16-3.33
			C50.06,121.52,50.02,121.24,50.06,121.13z"/>
		<path class="st0" d="M166.92,232.31c-0.27,0-0.21-0.23-0.25-0.39c0,0-0.67-2.24-0.74-2.42c-0.07-0.2,0.13-0.24,0.27-0.08
			c0.35,0.39,1.8,1.75,3.86,1.23c1.63-0.41,2.54-2.16,2.13-3.38c-0.54-1.63-2.14-2.4-5.65-4.02c-3.17-1.46-4.19-2.93-4.48-4.75
			c-0.34-2.13,1.04-5.14,4.07-6.08c2.65-0.82,3.29-0.74,3.8-1c0.4-0.21,0.46,0.62,0.52,0.78c0.25,0.71,0.94,2.9,1.1,3.31
			c0.14,0.38-0.14,0.52-0.34,0.1c-0.26-0.56-2.16-2.82-4.55-2.04c-2.36,0.77-2.71,2.45-2.38,3.57c0.37,1.24,0.59,2.22,5.03,4.09
			c4.33,1.82,5.17,3.69,5.19,5.78c0.02,2.33-1.83,4.14-4.29,4.76c-1.32,0.34-1.58,0.24-2.13,0.32c-0.32,0.05-0.56,0.07-0.73,0.09
			C167.22,232.2,167.13,232.31,166.92,232.31z"/>
		<path class="st0" d="M199.96,72.75c0.48-0.21,1.29-0.63,1.78-1.05c0.22-0.18,0.65,0,0.92,0.26c0.18,0.18,4.03,3.99,4.8,4.81
			c1.03,1.1,4.46,4.24,4.9,4.67c0.44,0.42,0.85,0.66,0.42,0.95c-0.44,0.29-1.39,0.83-1.68,0.97c-0.26,0.13-0.19,0.03-0.19-0.29
			c0-0.33-0.22-0.81-1.18-1.81c-0.96-1-2.07-2.15-2.27-2.31c-0.2-0.16-0.27-0.19-0.44-0.04c-0.28,0.25-4.06,4.09-4.91,4.97
			c-0.78,0.8-5.72,5.65-5.86,6.41c-0.15,0.78,0.1,0.95,0.2,1.1c0.12,0.19,0.22,0.79-0.02,0.54c-0.24-0.24-1.82-1.97-2.2-2.32
			c-0.42-0.39-1.91-1.65-2.13-1.85c-0.19-0.17-0.07-0.33,0.32-0.17c0.34,0.14,0.87,0.43,1.68,0.03c1.13-0.56,5.36-4.94,5.96-5.54
			c0.6-0.6,4.7-4.87,4.82-4.99c0.19-0.2,0.25-0.3-0.02-0.63c-0.29-0.36-2.8-2.75-3.32-3.09c-0.46-0.3-0.75-0.44-1.15-0.44
			C200.04,72.92,199.61,72.92,199.96,72.75z"/>
		<path class="st0" d="M59.12,103.48c-0.36-0.39-1.21-1.13-1.7-1.55c-0.22-0.18-0.1-0.43,0.1-0.75c0.13-0.21,2.84-5.18,3.45-6.12
			c0.82-1.27,3.26-5.35,3.57-5.88c0.32-0.56,0.53-0.93,0.79-0.7c0.38,0.36,1.06,1.16,1.24,1.42c0.22,0.3,0.09,0.15-0.23,0.15
			c-0.33,0-0.73,0.64-1.48,1.81c-0.74,1.17-1.33,2.38-1.44,2.62c-0.15,0.33,0.06,0.42,0.25,0.55c0.32,0.21,4.79,2.97,5.85,3.6
			c0.97,0.56,6.86,3.92,7.71,3.88c0.8-0.04,0.79-0.17,0.94-0.28c0.23-0.16,0.69-0.23,0.46,0.02c-0.27,0.3-1.28,1.79-1.6,2.4
			c-0.38,0.68-1.25,2.29-1.36,2.54c-0.11,0.23-0.12-0.17-0.1-0.51c0.02-0.41,0.27-0.78-0.34-1.29c-1.08-0.89-6.23-3.91-6.96-4.34
			c-0.72-0.44-5.76-3.29-6.11-3.41c-0.26-0.09-0.48-0.4-0.68-0.03c-0.25,0.46-2.11,3.39-2.27,4.41c-0.08,0.46-0.11,0.63-0.02,1.04
			C59.27,103.5,59.28,103.67,59.12,103.48z"/>
		<path class="st0" d="M82.18,73.23c-0.18-0.72-0.69-1.4-0.96-1.95c-0.17-0.33-0.17-0.32,0.26-0.67c0.19-0.15,4.7-3.49,5.6-4.17
			c1.22-0.94,5.36-3.73,5.86-4.09c0.52-0.38,1.05-0.57,1.21-0.12c0.18,0.5,0.68,1.67,0.76,1.97c0.12,0.45-0.06,0.11-0.38-0.17
			c-0.25-0.22-0.7-0.18-1.85,0.59c-1.13,0.76-2.77,1.84-2.99,2.04c-0.27,0.24-0.19,0.2-0.09,0.4c0.26,0.51,3.23,4.88,4.06,5.98
			c0.69,0.9,4.8,6.72,5.58,7.06c0.53,0.24,0.85,0.07,0.98,0.03c0.24-0.05,0.54,0.03,0.14,0.27c-0.35,0.2-1.65,1.07-2.08,1.36
			c-0.47,0.32-1.6,1.19-2,1.54c-0.48,0.41-0.35-0.03-0.13-0.32c0.19-0.24,0.37-0.47,0.06-1.19c-0.59-1.39-3.58-5.68-4.34-6.75
			c-0.49-0.69-4.41-5.93-4.66-6.26c-0.14-0.18-0.19-0.25-0.53,0c-0.38,0.27-3.39,2.57-3.84,2.99c-0.35,0.33-0.54,0.41-0.57,0.86
			C82.25,72.92,82.26,73.57,82.18,73.23z"/>
		<path class="st0" d="M220.14,90.91c2.78,2.9,5.01,9.77-0.72,14.54c-4.87,4.06-11.09,2.39-13.67-0.48c-2.4-2.65-4.85-8.86,0.41-14
			C211.27,85.97,217.5,88.15,220.14,90.91z M208.51,93.29c-4.15,4.04-3.65,8.61-1.52,10.77c2.1,2.13,6.69,2.5,10.69-1.35
			c4.07-3.9,3.68-9.06,1.12-11.31C216.92,89.75,212.71,89.22,208.51,93.29z"/>
		<path class="st0" d="M225.74,184.69c-1.29,4.13-6.81,8.6-13.44,5.64c-5.44-2.43-6.71-8.49-5.42-12.17
			c1.19-3.38,6.11-8.35,12.5-5.88C225.65,174.73,227.04,180.49,225.74,184.69z M218.43,175.18c-5.67-2.03-9.28,0.66-10.2,3.36
			c-0.87,2.59,0.14,6.46,5.87,8.62c5.55,2.07,9.72,0.02,10.67-3.73C225.12,182.04,225.2,177.61,218.43,175.18z"/>
		<path class="st0" d="M218.53,127.72c-0.49,0.01-2.01-0.17-2.51-0.27c-0.57-0.12-0.65-0.13-0.83-0.37c-0.15-0.2-2.57-3.08-2.57-7.5
			c0-4.84,2.3-8.81,6.91-10.17c4-1.18,8.18,0.5,10.58,3.58c1.93,2.46,2.16,5.62,2.22,6.62c0.09,1.4,0.21,2.24,0.28,2.69
			c0.12,0.76,0.11,0.97,0.28,1.17c0.16,0.2-0.07,0.39-0.36,0.43c-0.34,0.04-1.39,0.18-1.95,0.32c-0.42,0.1-1.27,0.34-1.39,0.37
			c-0.61,0.14-0.58-0.02-0.11-0.37c0.35-0.25,1.69-0.92,1.92-2.64c0.19-1.53,0.44-4.88-1.98-7.35c-1.79-1.83-4.8-3.29-9.11-1.52
			c-3.42,1.4-5.7,4.46-5.72,8.06c-0.03,3.63,2.1,5.79,4.17,6.52C219.01,127.51,219.37,127.7,218.53,127.72z"/>
		<path class="st0" d="M234.25,130.06c-0.01,0.74,0.34,4.05,0.48,4.71c0.17,0.78-0.18,0.42-0.23,0.14
			c-0.05-0.24-0.34-0.72-0.93-0.78c-0.91-0.09-4.85,0.19-8.1,0.6c1.47,1.57,6.37,5.09,7.03,5.55c0.8,0.57,1.59,1.07,1.84,1.06
			c0.17-0.01,0.09,0.13,0.16-0.09c0.1-0.31,0.43-1.29,0.37,0.21c-0.01,0.36-0.03,1.44,0,1.71c0.04,0.28,0.13,1.03,0.15,1.19
			c0.11,0.81-0.02,0.65-0.62-0.09c-0.89-1.09-2.81-2.44-3.5-2.94c-0.66-0.48-4.88-3.67-4.88-3.67s-6.05,5.75-7.19,7
			c-0.4,0.44-1.93,2.03-2.36,2.98c-0.2,0.44-0.35,0.65-0.28,0.24c0.05-0.27,0.24-1.92,0.28-2.64c0.04-0.63,0.11-2.6,0.11-2.79
			c0.02-0.39,0.18-0.1,0.39-0.04c0.31,0.08,2.02-1.52,3.89-3.36c1.42-1.4,3.79-3.96,3.96-4.21c-0.51-0.06-5,0.5-5.88,0.7
			c-0.89,0.2-1.82,0.44-2.1,0.75c-0.28,0.32-0.38,0.52-0.4,0.77c-0.03,0.24-0.27,0.36-0.31,0.04c-0.04-0.32-0.11-2.05-0.15-2.65
			c-0.04-0.64-0.25-2.04-0.29-2.25c-0.04-0.19,0.16-0.36,0.28-0.08c0.12,0.28,0.2,0.42,0.56,0.56c0.68,0.27,1.58,0.28,8.26-0.51
			c6.68-0.77,7.19-0.95,7.87-1.13c0.71-0.19,1.14-0.45,1.23-1.05C233.97,129.65,234.27,128.97,234.25,130.06z"/>
		<path class="st0" d="M234.38,152.99c-0.13,0.6-0.67,3.9-0.67,4.56c0,0.67-0.31,0.67-0.39,0.22c-0.11-0.64-0.35-0.72-0.63-0.89
			c-0.28-0.17-1.09-0.46-3.32-0.81c-2.31-0.37-3.82-0.63-3.82-0.63s-0.72,3.05-1.12,4.9c-0.5,2.32-1.06,5.38-1.06,5.38
			s3.25,0.92,4.45,1.26c1.19,0.33,3.02,1.09,3.61,0.1c0.41-0.69,0.67-0.54,0.28,0.2c-0.14,0.26-0.95,3.43-1.08,4.06
			c-0.24,1.17-0.4,0.43-0.35,0.16c0.05-0.25,0.28-0.76-0.76-1.17c-1.03-0.42-4.52-1.58-7.59-2.46c-3.07-0.87-6.58-2-7.97-1.88
			c-0.69,0.06-0.88,0.22-1.05,0.45c-0.23,0.33-0.65,0.43-0.32-0.11c0.31-0.51,1.1-3.34,1.23-4.22c0.2-1.37,0.42-0.41,0.39-0.15
			c-0.04,0.32,0.06,0.72,0.64,1.05c1.5,0.84,7.06,2.3,7.06,2.3s0.71-2.81,1.18-4.97c0.56-2.55,0.94-5.08,0.94-5.08
			s-1.41-0.23-2.41-0.4c-1-0.17-4.71-0.71-5.2-0.56c-0.47,0.14-0.73,0.5-0.8,0.71c-0.07,0.23-0.53,0.68-0.28-0.16
			c0.18-0.6,0.54-2.87,0.61-4.18c0.06-1.18,0.37-0.66,0.38-0.33c0.01,0.26,0.28,0.7,0.54,0.81c1.24,0.54,3.44,0.85,7.95,1.52
			c4.51,0.66,7.91,1.14,8.52,0.92c0.65-0.22,0.61-0.46,0.73-0.74C234.2,152.55,234.56,152.14,234.38,152.99z"/>
		<path class="st0" d="M216.04,199.37c-0.51,0.35-2.49,2.76-3.09,3.59c-0.48,0.65-0.41,0.13-0.29-0.13
			c0.23-0.47,0.09-0.62-0.09-1.03c-0.3-0.68-2.62-2.56-5.6-5.06c-2.94-2.45-5.62-4.73-6.42-4.77c-0.4-0.02-0.75-0.05-1.57,0.7
			c-1.24,1.14-2.71,2.96-3.04,3.54c-0.48,0.84-0.38,1.64-0.38,1.91c0.01,0.45-0.13,0.39-0.29,0c-0.17-0.44-0.6-2.19-0.62-2.5
			c-0.02-0.24,0-0.37,0.27-0.66c0.46-0.5,4.38-4.94,4.95-5.57c0.62-0.7,1.57-1.81,1.82-2.24c0.37-0.64,0.49-0.18,0.38,0.14
			c-0.12,0.33-0.38,0.7-0.18,1.3c0.39,1.16,4.08,3.89,6.21,5.6c4.17,3.36,6.21,5.13,6.89,5.13c0.53,0.01,0.67-0.09,0.92-0.29
			C216.09,198.88,216.57,198.99,216.04,199.37z"/>
		<path class="st0" d="M192.07,199.17c0.2,0.51,2.19,3.93,4.28,7.42c2.15,3.6,4.48,7.36,4.8,7.92c0.63,1.1,0.65,1.37-0.44,0.83
			c-1.58-0.79-7.94-3.99-8.96-4.48c-1.08-0.52-6.25-3.14-6.25-3.14s1.12,8.47,1.21,8.95c0.08,0.48,1.01,7.54,1.05,7.89
			c0.05,0.36,0.05,0.92-0.59,0.31c-0.64-0.6-10.66-13.39-11.17-13.97c-0.48-0.55-0.97-0.8-1.47-0.86c-0.4-0.05-0.59-0.03-0.79,0.04
			c-0.25,0.09-0.45-0.14-0.08-0.28c0.45-0.17,4.02-2.02,4.38-2.23c0.23-0.13,0.52,0.05,0.19,0.25c-0.45,0.28-0.51,0.47-0.42,0.88
			c0.22,0.97,7.48,9.98,7.48,9.98s-1.24-8.09-1.44-9.12c-0.2-1.05-0.92-5.81-0.92-5.81s0-0.3,0.31-0.14
			c0.32,0.17,7.4,3.79,8.15,4.15c0.71,0.36,5.3,2.61,5.3,2.61s-3.99-6.46-5.63-9.05c-0.41-0.65-0.85-0.95-1.08-1
			c-0.56-0.11-0.74,0.12-1.06,0.26c-0.16,0.07-0.43-0.13,0.07-0.43c0.6-0.35,1.26-0.87,1.66-1.19c0.4-0.32,1.43-1.3,1.59-1.46
			c0.2-0.2,0.42,0.04,0.24,0.21C192.08,198.08,191.76,198.42,192.07,199.17z"/>
		<path class="st0" d="M148.28,223.79c-0.04,0.34,0.06,4.26,0.11,4.75c0.02,0.23-0.18,0.16-0.31-0.34
			c-0.04-0.15-0.31-0.69-0.83-0.79c-1.52-0.31-4.39-0.08-4.39-0.08s-0.09,4.54,0.39,5.06c0.45,0.49,0.52,0.43,0.72,0.48
			c0.2,0.04,0.69,0.29,0.37,0.27c-0.61-0.06-4.03-0.06-4.8,0.02c-0.56,0.06-0.27-0.2,0.2-0.31c0.48-0.11,0.71-0.37,0.89-0.96
			c0.21-0.69,0.11-4.58,0.11-4.58s-4.17-0.04-4.69,0.25c-0.43,0.22-0.52,0.62-0.56,0.94c-0.04,0.32-0.38,0.61-0.34,0.17
			c0.08-0.78,0.13-3.6,0.04-4.23c-0.08-0.56,0.05-0.48,0.24-0.15c0.23,0.41,0.15,0.64,0.64,0.84c0.58,0.23,4.68,0.16,4.68,0.16
			s0.03-3.85-0.08-4.44c-0.11-0.57-0.51-0.93-0.99-0.98c-0.28-0.03-0.52-0.27-0.16-0.24c1.21,0.13,3.63,0.08,4.58-0.01
			c0.5-0.05,0.2,0.22-0.17,0.31c-0.41,0.11-0.81,0.33-0.97,0.94c-0.16,0.59-0.13,4.38-0.13,4.38s3.59,0.05,4.24-0.09
			c0.55-0.12,0.84-0.45,0.96-0.96C148.07,223.85,148.32,223.46,148.28,223.79z"/>
		<path class="st0" d="M115.75,232.99c-0.7-0.43-3.93-1.65-5.2-1.86c-0.57-0.09-0.04-0.24,0.32-0.22c0.47,0.04,0.87,0.11,1.21-0.26
			c0.89-0.96,4.41-9.83,4.87-11.92c0.48-2.17,0.55-4.97-3.38-6.37c-4.09-1.46-5.72,0.77-7.94,4.95c-1.62,3.05-4.2,8.48-4.2,9.09
			c0,0.47,0.15,0.64,0.41,0.85c0.36,0.3,0.57,0.78,0.22,0.5c-0.9-0.72-3.92-2-4.51-2.18c-0.35-0.11-0.07-0.31,0.37-0.22
			c0.37,0.08,0.53-0.01,0.89-0.26c0.88-0.61,5.34-9.55,5.93-10.52c1.09-1.8,2.79-3.48,5.15-3.91c2.56-0.45,6.61,0.87,8.69,3.79
			c1.72,2.43,1.13,5.02,0.81,6.4c-0.39,1.69-4.07,9.91-4.08,11.01c0,0.45,0.19,0.57,0.43,0.77
			C115.98,232.86,116.11,233.21,115.75,232.99z"/>
		<path class="st0" d="M89.99,222.03c0,0-0.77-8.32-1-11.19c-0.27-3.35-1.11-9.82-1.11-9.82s-6.54,7.07-7.38,7.92
			c-0.85,0.86-1.63,1.7-1.63,2.29c0,0.59,0.27,0.71,0.37,0.91c0.08,0.17,0.23,0.73,0.06,0.53c-0.33-0.4-1.05-1.14-1.79-1.82
			c-0.64-0.58-1.29-1.11-1.73-1.4c-0.44-0.3,0.11-0.25,0.35-0.09c0.24,0.17,0.41,0.25,0.9,0.2c0.62-0.08,5.32-5.24,7.06-7.06
			c1.75-1.82,5.67-6.14,6.07-6.69c0.29-0.4,0.29-0.22,0.32,0.21c0.04,0.53,0.72,9.08,0.87,10.07c0.14,0.92,0.58,6.74,0.63,7.39
			c0.06,0.65,0.25,2.83,0.25,2.83s3-4.32,4-5.87c1-1.55,3.09-4.33,3.08-5.07c-0.01-0.78-0.42-1.02-0.67-1.26
			c-0.14-0.14-0.24-0.49,0.07-0.22c0.69,0.62,2.83,2.16,4.14,2.76c0.63,0.29-0.31,0.12-0.48,0.04c-0.1-0.04-0.7-0.17-1.21,0.01
			c-0.67,0.24-4.45,6.02-5.2,7.13c-0.78,1.14-3.05,4.32-3.57,5.18c-0.53,0.86-1.75,2.65-1.99,3.1
			C90.17,222.54,90.05,222.5,89.99,222.03z"/>
		<path class="st0" d="M81.57,187.21c0.22,0.42,0.83,1.34,1.52,2.22c0.69,0.86,1.43,1.62,1.88,2.04c0.35,0.34-0.14,0.21-0.47-0.03
			c-0.39-0.29-0.71-0.36-1.74,0.21c-1.21,0.65-11.94,9.68-12.35,10.2c-0.5,0.62-0.46,0.92-0.25,1.39c0.16,0.36,0.05,0.68-0.09,0.45
			c-0.42-0.67-2.45-3.48-3.18-4.02c-0.47-0.35,0.02-0.26,0.33-0.09c0.33,0.19,0.42,0.17,0.78,0.02c1.2-0.51,13.32-10.3,13.51-10.99
			c0.2-0.73-0.07-0.84-0.1-1.05C81.38,187.27,81.34,186.78,81.57,187.21z"/>
		<path class="st0" d="M72.28,114.3c-0.46,0.72-1.85,4.23-2.08,5.24c-0.11,0.47-0.33-0.03-0.27-0.37c0.12-0.59,0.21-0.9-0.78-1.56
			c-1.27-0.84-13.94-5.68-15.21-5.68c-0.65,0-0.8,0.27-1.04,0.56c-0.21,0.26-0.64,0.38-0.37-0.01c0.31-0.44,1.99-4.62,2.08-5.21
			c0.09-0.57,0.31,0.01,0.25,0.33c-0.09,0.48-0.06,0.83,0.24,1.08c1.21,1.03,14.9,6.29,15.91,6.12c0.69-0.11,0.62-0.35,0.86-0.57
			C72.14,114,72.61,113.8,72.28,114.3z"/>
		<path class="st0" d="M67.52,184.27l4.06-5.42c0,0-7.11,0.38-8.63,0.51c-1.52,0.13-5.95,0.32-6.45,1.04
			c-0.33,0.48-0.02,1.01,0.01,1.17c0.06,0.33-0.02,0.84-0.16,0.45c-0.09-0.25-0.64-1.69-1.08-2.69c-0.39-0.9-0.91-1.99-1.05-2.2
			c-0.22-0.33,0.15-0.25,0.37-0.01c0.23,0.25,0.36,0.41,0.96,0.57c1,0.26,7.61-0.08,8.9-0.12c1.28-0.05,10.68-0.67,11.47-0.59
			c0.42,0.04,0.79-0.16,0.29,0.62c-0.28,0.44-5.9,7.79-6.33,8.38c-0.44,0.61-5.66,7.36-5.76,8.2c-0.08,0.72,0.02,0.9,0.06,1.09
			c0.06,0.29,0.02,1.07-0.09,0.81c-0.48-1.16-2.52-4.26-3.16-5.1c-0.4-0.52,0.13-0.17,0.45-0.05c0.33,0.11,0.52,0.04,0.87-0.2
			C63.27,190.06,66.96,185.04,67.52,184.27z"/>
		<path class="st0" d="M68.11,157.54c0.27,0.77,1.1,4.14,1.51,5.61c0.15,0.52,1.08,3.95,1.36,4.53c0.13,0.28-0.48-0.16-0.6-0.46
			c-0.08-0.19-0.05-0.32-0.36-0.55c-0.17-0.13-0.41-0.16-0.63-0.18c-0.85-0.11-5.77,1.52-8.22,2.27c-2.52,0.77-7.33,2.22-7.83,2.8
			c-0.5,0.59-0.34,0.85-0.3,1.15c0.04,0.26-0.16,1.21-0.27,0.62c-0.1-0.56-0.21-1.56-0.66-3.15c-0.4-1.41-2.02-7.23-2.12-7.49
			c-0.13-0.32-0.15-0.44,0.09-0.54c0.23-0.08,1.76-0.61,2.17-0.85c0.51-0.31,0.31,0.14,0.03,0.43c-0.27,0.29-0.42,0.44-0.37,1.35
			c0.07,1.07,1.36,5.07,1.36,5.07s2.4-0.64,3.19-0.91c0.77-0.28,3.4-1.05,3.4-1.05s-1.14-4.32-1.54-4.84
			c-0.38-0.5-0.63-0.4-1.02-0.37c-0.29,0.02-0.77-0.19-0.41-0.26c0.81-0.16,3.03-0.76,4.11-1.28c0.46-0.22,0,0.35-0.21,0.47
			c-0.22,0.13-0.55,0.33-0.58,1.06c-0.02,0.61,0.4,2.07,0.59,2.58c0.17,0.49,0.66,2.17,0.66,2.17s4.35-1.25,5.07-1.6
			c0.69-0.34,1.29-0.35,1.13-1.79c-0.14-1.21-0.92-4.03-1.54-4.94c-0.47-0.69-0.86-0.95-1.02-1.07c-0.16-0.13-0.73-0.61-0.39-0.5
			c0.51,0.16,2.68,0.92,2.94,1.12C67.88,157.12,67.99,157.2,68.11,157.54z"/>
		<path class="st0" d="M89.45,89.13c-0.52,0.55-4.34,4.68-5.4,5.89c-0.36,0.41-1.21,1.38-1.46,1.68c-0.2,0.23-0.28-0.22-0.12-0.5
			c0.16-0.28,0.33-0.4,0.12-1.06c-0.27-0.88-4.72-4.51-6.65-6.19c-2.08-1.8-5.43-4.86-6.2-4.97c-0.69-0.09-0.86,0.03-1.19,0.2
			c-0.24,0.12-0.84,0.37-0.42-0.04c0.41-0.4,1.04-1.1,1.96-2.09c1-1.07,5.07-5.31,5.24-5.53c0.21-0.28,0.32-0.28,0.5-0.1
			c0.21,0.22,1.23,1.28,1.63,1.53c0.61,0.37,0.06,0.33-0.26,0.25c-0.28-0.06-0.44-0.17-1.11,0.22c-1.06,0.62-3.55,3.6-3.55,3.6
			l4.87,4.5c0,0,3.39-3.16,3.45-3.81c0.05-0.56-0.03-0.7-0.07-0.83c-0.09-0.26-0.05-0.71,0.16-0.4c0.63,0.89,2.25,2.33,2.67,2.63
			c0.43,0.3-0.07,0.31-0.3,0.2c-0.36-0.16-0.49-0.41-1.16-0.09c-0.66,0.33-3.38,3.52-3.38,3.52s3.47,2.98,4.12,3.46
			c0.85,0.62,1.46,0.77,2.31-0.01c0.9-0.82,2.84-2.71,3.29-3.72c0.35-0.77,0.21-1.31,0.23-1.5c0.02-0.3,0.2-0.68,0.26-0.43
			c0.06,0.25,0.77,2.47,0.81,2.81C89.84,88.65,89.77,88.8,89.45,89.13z"/>
		<path class="st0" d="M66.76,148.23c0.03,0.41,0.14,2.36,0.27,3.23c0.07,0.49-0.23-0.12-0.3-0.37c-0.07-0.24-0.11-0.5-0.52-0.7
			c-0.68-0.36-5.41,0.04-8.17,0.34c-2.52,0.28-8.35,0.57-9.04,1.21c-0.5,0.46-0.41,1.01-0.43,1.21c-0.01,0.27-0.47,1.14-0.46,0.48
			c0.01-0.4-0.01-2.15-0.1-2.76c-0.1-0.66-0.56-4.87-0.31-6.32c0.29-1.66,1.93-3.97,4.75-4.09c2.97-0.13,4.41,2.36,4.71,2.96
			c0.27-0.35,0.43-0.54,1.22-1.14c0.96-0.73,7.27-4.45,7.75-5.58c0.31-0.73,0.16-1.09,0.15-1.25c-0.06-0.74,0.1-1.26,0.46,0
			c0.21,0.75,0.36,2.86-0.54,4.12c-1.12,1.57-4.69,3.69-5.39,4.17c-0.83,0.56-2.73,1.61-2.73,2.76c0.01,1.01,0.15,1.62,0.15,1.62
			s2.8-0.28,3.56-0.37c0.76-0.09,3.72-0.27,4.12-0.71c0.4-0.45,0.31-0.6,0.35-0.83c0.03-0.21,0.48-1.15,0.45,0.07
			C66.71,146.72,66.72,147.82,66.76,148.23z M55.34,143.65c-2.63-1.54-5.11-0.18-5.96,1.19c-0.82,1.37-0.38,3.94-0.38,3.94
			s3.38-0.23,4.03-0.27c0.64-0.04,4.14-0.29,4.14-0.29S57.54,144.94,55.34,143.65z"/>
		<path class="st0" d="M136.64,86.36c-3.27-3.89-3.79-8.15-3.79-10.39c0-2.89,1.31-4.72,2.58-6.5l0.94-1.16
			c1.57-1.84,3.71-4.35,3.71-8.74c0-3.82-0.44-5.46-0.68-6.09c-0.14,1.89-1.23,9.71-9.36,16.76c-2.33,2.02-6.22,5.4-6.22,9.61
			c0,6.18,4,11.29,5.24,12.73c-1.07-2.72-1.41-5.38-1.41-7.55c0-3.05,0.62-5.17,0.63-5.21l0.07-0.24l0.12,0.21
			C131.29,84.56,135.49,86.04,136.64,86.36z"/>
		<path class="st0" d="M137.85,68.27c2.02-0.78,9.37-3.99,9.37-9.14c0-4.02-2.95-7.62-3.95-8.73c0.28,0.9,0.82,2.97,0.82,5.47
			C144.08,61.87,139.29,66.91,137.85,68.27z"/>
		<path class="st0" d="M165.37,58.41c-1.97,2.87-9.21,5.72-9.54,5.85l-0.12-0.18c4.11-4.18,5.23-10.66,5.47-12.42
			c-5.79,9.13-9.34,10.7-13.42,12.5l-1.79,0.8c-4.9,2.32-10.52,5.64-10.52,10.83c0,6.87,2.34,9.74,3.13,10.52
			c-0.51-1.83-0.68-3.39-0.68-4.61c0-1.99,0.41-3.1,0.42-3.12l0.15-0.4l0.06,0.42c0.54,3.78,5.1,7.33,6.1,8.07
			c-0.05-0.41-0.13-1.3-0.13-2.48c0-3.83,0.89-10.62,6.84-13.17C162.07,66.44,164.74,60.51,165.37,58.41z"/>
		<path class="st0" d="M156.47,79.67c0-7.08,1.36-9.8,2.08-10.75C147,74.16,145.76,83.7,145.76,87.48c0,0.46,0.02,0.81,0.04,1.08
			c0.5-1.46,2.25-5.73,6.48-9.32l0.07-0.06l0.07,0.04c0.02,0.01,0.04,0.03,0.04,0.14c0,0.38-0.26,1.91-1.79,8.45
			C151.74,87.13,156.47,83.82,156.47,79.67z"/>
		<path class="st0" d="M166.61,78.98c0-2.08-0.57-3.75-0.83-4.41c-0.19,0.74-0.82,2.57-2.77,4.39l0,0l0,0c0,0,0,0,0,0l-0.16-0.16
			c0.02-0.02,1.2-1.38,1.2-4.97c0-1.04-0.1-2.25-0.35-3.67c-0.09-0.54-0.14-1.07-0.14-1.58c0-2.84,1.27-5.18,1.87-6.14
			c-1.23,0.9-4.61,3.77-6.01,9.06c-1.05,3.92-1.31,5.57-1.51,6.77c-0.13,0.83-0.23,1.42-0.52,2.4c-0.67,2.28-2.13,6.37-3.32,8.31
			c0.85-0.5,3.14-2.08,4.88-5.57l0.15-0.3l0.06,0.34c0,0.02,0.13,0.85,0.13,2.1c0,1.56-0.23,3.76-1.13,5.78
			C159.7,90.1,166.61,84.29,166.61,78.98z"/>
		<path class="st0" d="M178.87,67.48c-3.88-2.88-8.11-1.55-8.15-1.53l-0.35,0.11l0.23-0.29c1.97-2.48,4.49-4,5.3-4.46
			c-1.23-0.18-6.08-0.62-8.48,2.83c-1.55,2.23-1.81,5.6-1.81,7.58c0,0.55,0.02,0.97,0.04,1.25c2.37-4.12,2.64-4.11,2.73-4.1
			l0.1,0.04L168.5,69c0.09,0.44,0.13,0.99,0.13,1.58c0,1.87-0.35,4.22-0.53,5.36C172.29,67.91,177.46,67.44,178.87,67.48z"/>
		<path class="st0" d="M144.26,210.52l0.44-19.42c0.38,0.56,0.68,1.04,0.81,1.31c0.47,0.99,0.8,2.3,0.8,2.3s0.65,0.65,0.8,1.6
			c0.15,0.95,0.6,4.15,0.75,4.9c0.15,0.75,0.15,1.35,0.6,1.35c2.6,0,4.05-4.3,3.5-5.65c-0.55-1.35-2-3-2-3s-1.4-4.45-1.65-5
			c-0.25-0.55-1.25-1.05-1.55-1.25c-0.15-0.1-1.06-1-1.94-1.88l0.12-5.44c-0.34,0.04-0.62,0-0.86,0c-3.95,0-6.13-2.45-6.22-2.54
			l0.96,32.7L144.26,210.52z M150.8,199.91c-1.15,1.6-1.3,1.65-1.7,1.65c-0.4,0-0.4-1.75-0.15-2.65c0.25-0.9,0.9-1.85,1.75-1.8
			C151.4,197.15,151.95,198.31,150.8,199.91z"/>
		<path class="st0" d="M187.37,136.66c0.85,0.25,4.6,1.3,6.49,1.2c4.94-0.26,8.64-4.05,9.74-4.95c1.1-0.9,4.2-2.5,4.2-2.5
			s-2.7-0.05-6.09-0.35c-3.4-0.3-6.8,0.25-9.34,1.1c-2.55,0.85-4.05,2.5-4.55,2.9c-0.5,0.4-0.9,1-1.9,1.25
			c-1,0.25-1.85,0.45-1.85,0.45c0.5-1.35,0.95-2,1.35-2.3c0.4-0.3,2.6-1.75,4.85-4.15c2.25-2.4,5.64-8.24,5.89-9.19
			c0.25-0.95,2.3-5.54,2.3-5.54s-2.5,1.8-5.24,3.25c-2.75,1.45-5.8,4.1-7.14,6.44c-1.35,2.35-1.85,5.2-1.9,7.5
			c-0.05,2.3-0.95,4.25-2.9,6.59c-1.5,1.8-4.6,4.35-5.2,4.85c-0.16,0.14-1.54,1.15-3.05,1.55c-0.95,0.25-2.1,0.1-2.1,0.1
			s1.05-1.35,1.7-1.55c0.65-0.2,2.2-0.7,4.7-2.95c2.5-2.25,4-7.94,4.2-8.89c0.2-0.95,1.1-3.85,1.1-3.85s-1.95,1.9-4.25,3.35
			c-2.3,1.45-5,4.1-6.65,6.84c-1.65,2.75-0.85,4.95-0.85,5.35c0,0.4-0.15,0.65-0.8,1.3c-0.65,0.65-1.65,0.8-2.2,0.95
			c-0.55,0.15-2.85,1.05-5.2,1.05c-2.35,0-5.45-1.1-6.14-1.15c-0.7-0.05-1.8,0.6-2.25,0.65c-0.45,0.05-0.8-0.15-1.25-0.15
			c-0.45,0-1.85,0.05-1.85,0.05c0.35-0.7,0.4-1.95,0.45-2.3c0.05-0.35,0.15-0.85,0.65-0.95c0.5-0.1,1.95-1.05,2.45-1.3
			c0.5-0.25,0.9-0.3,1.45-0.3c0.4,0,3.2-0.1,5.5-1.5c4.09-2.49,6.35-6.35,6.99-7.3c0.65-0.95,3.9-3.35,3.9-3.35s-2.55,0.7-5.45,1.55
			c-2.9,0.85-7.14,2.85-8.64,4.2c-1.5,1.35-2.3,2.65-2.85,3.55c-0.55,0.9-1.05,2.15-1.5,2.5c-0.45,0.35-1.9,1.1-1.9,0.9
			c0-0.2,0.55-1.25,0.9-1.85c0.35-0.6,1.45-2.35,2.15-3.4c0.7-1.05,1.1-2.15,1.3-2.7c0.2-0.55,0.7-1.9,1.3-2.6
			c2.19-2.55,3.7-2.55,4.9-2.65c1.2-0.1,2.4,0.15,6.19-0.3c3.8-0.45,6.69-2.55,7.49-3c0.8-0.45,4.35-3.05,4.35-3.05
			s-3.45,0.6-4.54,0.75c-1.1,0.15-5.35,0.2-7.79,0.8c-2.45,0.6-4.6,2.1-6.65,3.45c-2.05,1.35-4.25,3.25-4.25,3.25s0-1.3,0.15-1.9
			c0.15-0.6,0.35-1.45,1.35-2c1-0.55,3.85-2.25,5.69-4.1c1.85-1.85,4.2-5.75,4.5-6.64c0.3-0.9,2.1-4.5,2.1-4.5s-0.85,0.9-4,2.5
			c-3.15,1.6-6,3.8-7.69,6c-1.7,2.2-1.95,4.15-2,4.99c-0.05,0.85-0.2,1.95-0.4,2.4c-0.2,0.45-0.43,0.71-0.6,2.55
			c-0.15,1.65-0.35,2-0.65,2.85c-0.3,0.85-0.3,1.2-0.65,1.8c-0.35,0.6-0.3,0.3-0.65,1.15c-0.35,0.85-2.35,3.35-2.35,3.35
			s-0.65-0.8,0.35-2.95c1.45-3.12,2-5.65,2.05-7.29c0.05-1.65-0.7-4.9-1.15-6.1c-0.45-1.2-1.95-5.44-1.95-5.44s-0.15,1.95-0.85,3.95
			c-0.7,2-2.3,6.04-2.3,8.84c0,2.8,1.45,6.05,2.15,6.94c0.7,0.9,0.85,1.65,0.75,2.75c-0.1,1.1-0.49,1.5-1.05,2.4
			c-0.35,0.55-0.34,0.81-0.7,2.35c-0.7,3-2.2,3.9-3.5,4.94c-0.15,0.12-0.35,0.26-0.57,0.41l0.7-27.41
			c0.31-4.14,0.72-12.49,4.51-17.98c0.48-0.69,0.73-1.03,0.73-1.03c2.47-3.44,6.19-5.07,9.4-5.39v-2.24c0,0-17.22-0.03-20.57-0.03
			h-0.06c-3.33,0-18.84,0.03-18.84,0.03v2.24c3.2,0.32,6.93,1.95,9.4,5.39c2.94,4.1,4.76,6.51,5.29,19.49l0.96,31.33
			c-2.22,1.24-2.59,3.93-2.59,3.93c-0.4-0.7-0.55-1.55-0.25-2.05c0.3-0.5,1.35-3.3,0.85-5.99c-0.5-2.7-3.5-7.19-4.45-8.29
			c-0.95-1.1-2.7-3.8-2.7-3.8s0.05,2.5-0.1,4.5c-0.15,2-0.85,4.8,0.35,8.29c1.2,3.5,3.75,5.2,4.2,5.55c0.45,0.35,0.95,0.95,1.15,2
			c0.2,1.05,0.05,1.3-0.1,2.05c-0.15,0.75,0.05,1.15-0.25,2.2c-0.21,0.73-0.8,1.15-0.9,1.8c-0.23,1.48-0.6,2.5-0.75,3.05
			c-0.15,0.55-0.5,0.65-0.95,1.4c-0.45,0.75-0.35,1.25-0.35,1.25s-2.3-1.95-2.6-2.65c-1.9-4.42-4.95-5.4-6.9-5.85
			c-1.95-0.45-5-0.3-6.49-0.15c-1.45,0.14-5.19-0.6-5.42-0.65c0.21,0.04,1.87,0.45,3.97,2.74c2.25,2.45,4.9,4.2,6.95,5
			c2.05,0.8,4.5,0.15,5.25-0.05c0.75-0.2,1.3-0.5,1.95-0.25c0.65,0.25,1.4,1.25,1.4,1.25s-1.15,0.65-2,1.05
			c-3.03,1.42-5.36,2.58-7.14,5.54c-0.76,1.27-1.8,5.75-1.95,6.79c-0.15,1.05-1.05,3.85-1.05,3.85s1.7-1.45,3.1-2.4
			c1.4-0.95,3.45-2.1,5.7-4.95c2.25-2.85,2.55-7.24,2.65-8.14c0.1-0.9,0.75-1.15,1-1.15c0.25,0,1.1,0.6,1.05,1.35
			c-0.05,0.75,0.35,1.55,0.65,2c0.3,0.45,1,1.05,1.6,1.9c0.6,0.85,1.05,2.75,1.45,3.55c0.4,0.8,0.6,0.7,1.2,1.8
			c0.6,1.1,0.5,1.7,1,2.55c0.5,0.85,0.75,0.75,0.75,0.75l-0.3-5.3c0,0-0.2-0.1-0.4-0.35c-0.2-0.25-0.5-0.9-0.5-0.9s0.9-0.6,1.5-0.9
			c0.6-0.3,0.95-0.15,1.35,0.1c0.4,0.25,3.25,2.55,6.35,2.55c3.1,0,9.44-3.4,10.59-4c1.15-0.6,4.15-1.45,4.15-1.45s-3-0.3-4.6-0.65
			c-1.6-0.35-6.24-1.25-7.34-1.25c-1.1,0-2.05,0.25-2.05,0.25l0.13-1.61c0,0-1.32,1.12-1.77,1.47c-0.45,0.35-1.59,0.98-3.3,1.64
			c-1.23,0.47-2.4,0.7-2.4,0.7s-0.2-0.2-0.35,0.55c-0.15,0.75-0.25,0.65-1.1,0.85c-0.85,0.2-1.6,0.55-1.6,0.55s0.7-1.8,0.8-2.1
			c0.1-0.3,0.25-0.6,1.3-0.8c1.05-0.2,4.1-0.9,7.14-3.65c3.05-2.75,4.61-6.26,5.15-7.44c0.87-1.92,3.55-4.4,3.55-4.4
			s-2.3,0.9-6.64,2.4c-0.21,0.07-0.4,0.15-0.61,0.22l0.16-5.74l-0.01,0l0.01-0.41c-0.12,0.05-0.22,0.1-0.3,0.14
			c-0.65,0.3-2.55,0.85-3.3,1.2c-0.75,0.35-1.35,1.15-1.95,1.45c-0.36,0.18-1.66,0.59-2.82,1.74l0.05,0.94l0,0l0.19,6.11
			c-1.66,2.18-1.77,3.91-1.96,5.05c-0.2,1.15-0.35,1.7-0.5,2.3c-0.15,0.6-0.75,2-0.75,2s-0.85-1.65-1.7-2.55
			c-0.85-0.9-0.55-1.65-0.45-2.35c0.1-0.7,0.5-1.45,0.95-2.6c0.45-1.15,1.05-3.35,1.4-4.05c0.35-0.7,0.2,0.65,0.95-3.45
			c0.75-4.1,4.05-5.04,4.65-5.34c0.6-0.3,1.2-1.1,1.95-1.45c0.75-0.35,2.65-0.9,3.3-1.2c0.65-0.3,2.77-1.19,3.75-2.5
			c0.98-1.31,1.55-1.7,2.2-2.05c0.65-0.35,1.7-0.4,3.35-0.5c1.65-0.1,2,1.2,2.35,1.65c0.35,0.45,0.35,0.9,0.4,1.5
			c0.05,0.6-0.4,3.7,2.95,6.6c3.35,2.9,7.44,3.15,8.94,3.55c1.5,0.4,5.25,1.95,5.25,1.95s-0.65-0.25-3.2-4.2
			c-2.55-3.95-5-6.3-6.53-7.18c-1.54-0.89-4.36-1.51-5.01-1.66c-0.65-0.15-1.25-0.35-1.65-0.7c-0.4-0.35-1.25-1.6-1.25-1.6
			s0.35-0.05,0.65,0c0.3,0.05,1.65,0.95,5,0.95c3.35,0,5.15-1.15,5.79-1.4c0.65-0.25,1.3-0.2,1.95,0.2c0.65,0.4,1.45,0.95,3.05,1.95
			c1.6,1,4.5,2.55,7.44,2.55c2.95,0,8.04-1.4,9.39-2.05c1.35-0.65,3.9-1.2,3.9-1.2s-2.5-0.45-3.9-0.75c-1.4-0.3-5.95-2-9.14-2
			c-3.2,0-5.49,1.5-5.79,1.7c-0.3,0.2-0.7,0.8-2.05,0.4c-1.35-0.4-1.55-1.35-1.55-1.35c3.8-0.55,4.15-1.15,5.65-2.1
			c1.5-0.95,2.75-2.75,3.7-3.65c0.64-0.61,1.17-1.38,2.55-2.65C185.37,135.66,187.37,136.66,187.37,136.66z M194.65,131.47
			c3.76-0.89,10.64-0.57,9.81-0.37c-0.84,0.21-5.79,2.35-9.29,3.29c-3.5,0.94-7.56,1.2-7.56,1.2l-0.05-0.1
			C187.55,135.49,190.89,132.36,194.65,131.47z M187.14,124.32c2.5-4.23,8.4-6.58,8.4-6.58s-4.28,5.69-5.64,7.51
			c-1.36,1.83-4.85,6.99-4.85,6.99S184.63,128.55,187.14,124.32z M173.15,137.11c2.45-4.02,7.25-6.42,7.25-6.42s-2.97,5.01-4.65,7.3
			c-1.67,2.3-4.07,5.11-4.07,5.11S170.7,141.12,173.15,137.11z M160.06,134.6c2.2-1.5,8.87-3.97,8.87-3.97s-5.11,4.54-7.67,6.37
			c-2.56,1.83-5.64,3.29-5.64,3.29S156.61,136.95,160.06,134.6z M168.35,124.43c2.19-0.73,8.97-0.99,8.97-0.99s-5.9,2.09-8.29,2.87
			c-2.4,0.78-6.63,1.41-6.63,1.41S165.11,125.51,168.35,124.43z M160.47,120.04c1.88-2.92,8.71-6.47,8.71-6.47s-3.81,3.81-6.47,6.94
			c-2.66,3.13-4.44,5.27-4.44,5.27l-0.05,0.1C158.23,125.89,158.6,122.97,160.47,120.04z M151.4,136.11c0,0-1.88-2.56-1.93-6.73
			c-0.05-4.17,2.4-8.66,2.4-8.66s-0.1,4.91,0.05,7.67C152.07,131.16,151.4,136.11,151.4,136.11z M119.15,165.02
			c-2.4-0.83-5.9-3.18-5.9-3.18s6.37-0.73,8.71,0.42c4.06,1.99,4.64,5.01,4.64,5.01S121.55,165.86,119.15,165.02z M118.11,183.8
			c0,0,0.81-6.35,2.59-8.56c2.59-3.22,5.38-3.73,5.38-3.73L118.11,183.8z M146.4,172.6c2.28-0.23,8.57,1.18,8.57,1.18
			s-6.6,1.57-9.98,1.81c-3.38,0.23-6.33-0.08-6.33-0.08S140.23,173.23,146.4,172.6z M139.91,164.29c2.35-2.29,9.55-4.54,9.55-4.54
			s-5.74,4.91-8.04,6.94c-2.3,2.03-5.22,5.53-5.22,5.53S135.74,168.36,139.91,164.29z M133.55,155.73c0,0-1.77-3.03-2.66-6.26
			c-0.69-2.53-1.72-8.66-1.72-8.66s4.04,5.83,4.75,7.77C135.11,151.87,133.55,155.73,133.55,155.73z M158.33,149.47
			c0,0,4.28,0.99,6.21,2.3c4.1,2.77,6.63,8.09,6.63,8.09s-4.17-2.24-7.2-4.54c-3.03-2.29-5.64-5.69-5.64-5.69V149.47z
			 M180.56,145.98c3.76,0,9.24,1.88,9.24,1.88s-6.99,0.89-9.24,0.89c-2.24,0-6-0.57-6-0.57S177.64,145.98,180.56,145.98z"/>
		<path class="st0" d="M169.77,118.23c0,0-1.36,0.56-1.36,2.6c0,2.04,1.81,1.47,1.81,1.47s1.58-0.34,1.58-2.37
			C171.81,117.89,169.77,118.23,169.77,118.23z"/>
		<path class="st0" d="M194.51,125.73c0,0-1.36,0.56-1.36,2.6c0,2.04,1.81,1.47,1.81,1.47s1.59-0.34,1.59-2.37
			C196.55,125.38,194.51,125.73,194.51,125.73z"/>
		<path class="st0" d="M152.62,149.23c0,0-1.36,0.57-1.36,2.61c0,2.03,1.81,1.46,1.81,1.46s1.59-0.34,1.59-2.37
			C154.66,148.9,152.62,149.23,152.62,149.23z"/>
		<path class="st0" d="M181.91,141.37c-0.62,1.94,1.28,1.95,1.28,1.95s1.61,0.16,2.23-1.78c0.63-1.94-1.42-2.24-1.42-2.24
			S182.53,139.43,181.91,141.37z"/>
		<path class="st0" d="M169.31,149.21c0,0-1.36,0.57-1.36,2.61c0,2.04,1.81,1.47,1.81,1.47s1.59-0.34,1.59-2.38
			C171.35,148.88,169.31,149.21,169.31,149.21z"/>
		<path class="st0" d="M149.41,166.3c0,0-1.36,0.56-1.36,2.6c0,2.04,1.81,1.48,1.81,1.48s1.58-0.34,1.58-2.38
			C151.44,165.96,149.41,166.3,149.41,166.3z"/>
		<path class="st0" d="M118.33,173.54c0,0,1.58-0.34,1.58-2.38c0-2.04-2.04-1.7-2.04-1.7s-1.36,0.57-1.36,2.6
			C116.52,174.11,118.33,173.54,118.33,173.54z"/>
		<path class="st0" d="M127.73,49.67c0.6,0.82,2.78,4.1,2.78,8.06c0,1.1-0.13,2.85-0.13,2.85s-0.1,1.71-0.95,5.04
			c1.2-1.8,2.91-4.66,3.5-7.04l0.07-0.27l0.13,0.25c0.04,0.08,0.91,1.7,1.05,3.41c0.34-0.77,1.04-2.63,1.04-4.68
			C135.23,53.91,131.79,49.82,127.73,49.67z"/>
		<path class="st0" d="M128.63,62.08L128.63,62.08c-0.06-1.06-0.19-2.32-0.45-3.76c-0.35,1.09-1.75,3.75-7.32,9
			c-3.18,2.99-4.9,5.26-4.9,8.64c0,6.57,5.87,11.79,7.31,12.97c-0.48-1.26-1.97-5.59-1.97-10.67c0-2.25,1.31-3.56,2.59-4.84
			l0.31-0.31c0.88-0.87,2.24-2.22,3.12-3.53l0,0c0,0,0.67-0.91,1.08-2.4c0.06-0.24,0.13-0.64,0.19-1.22l0,0.01
			C128.67,65.36,128.73,63.63,128.63,62.08z"/>
		<path class="st0" d="M97.83,121.24c-0.96,0-1.68,0.78-1.68,1.7c0,0.4,0.18,0.8,0.48,1.1c-0.2-0.06-0.4-0.1-0.6-0.1
			c-1.18,0-2.12,0.96-2.12,2.12c0,1.18,0.94,2.12,2.12,2.12c0.2,0,0.38-0.04,0.56-0.08c-0.46,1.56-1.92,2.56-3.52,2.56
			c-3.12,0-4.36-3.36-4.48-4.16c0.24,0.86,1.04,1.52,2,1.52c1.16,0,2.1-0.94,2.1-2.1c0-1.16-0.94-2.1-2.1-2.1
			c-0.22,0-0.42,0.06-0.62,0.12c0.44-0.4,0.72-0.94,0.72-1.58c0-1.16-0.94-2.08-2.1-2.08c-1.16,0-2.1,0.92-2.1,2.08
			c0,0.64,0.3,1.2,0.74,1.6c-0.22-0.08-0.44-0.14-0.68-0.14c-1.16,0-2.1,0.94-2.1,2.1c0,1.16,0.94,2.1,2.1,2.1
			c0.96,0,1.76-0.66,2-1.52c-0.12,0.96-1.88,4.16-4.5,4.16c-1.74,0-3.14-1.06-3.54-2.56c0.18,0.04,0.36,0.08,0.56,0.08
			c1.16,0,2.12-0.94,2.12-2.12c0-1.16-0.96-2.12-2.12-2.12c-0.22,0-0.42,0.04-0.6,0.1c0.3-0.3,0.48-0.7,0.48-1.1
			c0-0.92-0.72-1.7-1.7-1.7c-0.82,0-1.06,0.2-1.06,0.2c0.44,1.74,0.96,5.22,1.04,5.7l1.46,9.52h15.72c0,0,0.02-0.16,0.04-0.28
			l1.42-9.24c0.32-2.16,0.7-4.43,1.02-5.7C98.89,121.44,98.65,121.24,97.83,121.24z"/>
		<path class="st0" d="M127.54,121.24c-0.96,0-1.68,0.78-1.68,1.7c0,0.4,0.18,0.8,0.48,1.1c-0.2-0.06-0.4-0.1-0.6-0.1
			c-1.18,0-2.12,0.96-2.12,2.12c0,1.18,0.94,2.12,2.12,2.12c0.2,0,0.38-0.04,0.56-0.08c-0.46,1.56-1.92,2.56-3.52,2.56
			c-3.12,0-4.36-3.36-4.48-4.16c0.24,0.86,1.04,1.52,2,1.52c1.16,0,2.1-0.94,2.1-2.1c0-1.16-0.94-2.1-2.1-2.1
			c-0.22,0-0.42,0.06-0.62,0.12c0.44-0.4,0.72-0.94,0.72-1.58c0-1.16-0.94-2.08-2.1-2.08c-1.16,0-2.1,0.92-2.1,2.08
			c0,0.64,0.3,1.2,0.74,1.6c-0.22-0.08-0.44-0.14-0.68-0.14c-1.16,0-2.1,0.94-2.1,2.1c0,1.16,0.94,2.1,2.1,2.1
			c0.96,0,1.76-0.66,2-1.52c-0.12,0.96-1.88,4.16-4.5,4.16c-1.74,0-3.14-1.06-3.54-2.56c0.18,0.04,0.36,0.08,0.56,0.08
			c1.16,0,2.12-0.94,2.12-2.12c0-1.16-0.96-2.12-2.12-2.12c-0.22,0-0.42,0.04-0.6,0.1c0.3-0.3,0.48-0.7,0.48-1.1
			c0-0.92-0.72-1.7-1.7-1.7c-0.82,0-1.06,0.2-1.06,0.2c0.44,1.74,0.96,5.22,1.04,5.7l1.46,9.52h15.72c0,0,0.02-0.16,0.04-0.28
			l1.42-9.24c0.32-2.16,0.74-4.57,1.02-5.7C128.6,121.44,128.36,121.24,127.54,121.24z"/>
		<path class="st0" d="M113.86,140.26c-1.06,0-1.85,0.86-1.85,1.88c0,0.44,0.2,0.88,0.53,1.21c-0.22-0.07-0.44-0.11-0.66-0.11
			c-1.3,0-2.34,1.06-2.34,2.34c0,1.3,1.04,2.34,2.34,2.34c0.22,0,0.42-0.04,0.62-0.09c-0.51,1.72-2.12,2.82-3.88,2.82
			c-3.44,0-4.81-3.71-4.94-4.59c0.26,0.95,1.15,1.68,2.21,1.68c1.28,0,2.32-1.04,2.32-2.32c0-1.28-1.04-2.32-2.32-2.32
			c-0.24,0-0.46,0.07-0.68,0.13c0.49-0.44,0.79-1.04,0.79-1.74c0-1.28-1.04-2.29-2.32-2.29c-1.28,0-2.32,1.01-2.32,2.29
			c0,0.71,0.33,1.32,0.82,1.76c-0.24-0.09-0.48-0.15-0.75-0.15c-1.28,0-2.32,1.04-2.32,2.32c0,1.28,1.04,2.32,2.32,2.32
			c1.06,0,1.94-0.73,2.21-1.68c-0.13,1.06-2.07,4.59-4.96,4.59c-1.92,0-3.46-1.17-3.9-2.82c0.2,0.04,0.4,0.09,0.62,0.09
			c1.28,0,2.34-1.04,2.34-2.34c0-1.28-1.06-2.34-2.34-2.34c-0.24,0-0.46,0.04-0.66,0.11c0.33-0.33,0.53-0.77,0.53-1.21
			c0-1.01-0.79-1.88-1.88-1.88c-0.9,0-1.17,0.22-1.17,0.22c0.49,1.92,1.06,5.76,1.15,6.29l1.61,10.5h17.34c0,0,0.02-0.18,0.04-0.31
			l1.57-10.19c0.35-2.38,0.8-5.05,1.12-6.29C115.02,140.48,114.76,140.26,113.86,140.26z"/>
	</g>
	<g>
		<path class="st0" d="M63.28,318.79h-5.16c-0.07,6.74-0.14,13.42-0.14,24.7c0,5.99,0.41,9.36,2.41,11.83
			c1.93,2.41,5.43,3.44,10.39,3.44c4.82,0,8.53-1.17,10.73-4.06c2-2.62,2.06-6.74,2.13-13.28l0.14-22.63H77.8v-4.33h16.65v4.33h-5.3
			l-0.14,26.08c0,5.5-0.62,9.49-3.78,13.35c-2.75,3.37-7.84,5.23-14.65,5.23c-8.39,0-13-2.13-15.82-5.99
			c-2.27-3.1-2.68-6.47-2.68-14.52c0-7.84,0.07-16.79,0.14-24.15h-5.57v-4.33h16.65V318.79z"/>
		<path class="st0" d="M122.22,358.28h4.54c0-5.5,0.28-11.28,0.28-16.99c0-3.44-0.14-10.32-8.05-10.32
			c-5.02,0-10.53,3.03-10.53,12.66l-0.14,14.65h5.16v4.33H98.07v-4.33h4.54l0.28-26.83h-5.71v-4.33h11.35c0,1.38-0.07,3.3-0.21,4.27
			l-0.55,3.58h0.14c1.51-5.37,7.22-8.67,12.59-8.67c9.77,0,12.18,6.6,12.18,13.35c0,6.05-0.27,13.14-0.27,18.65h5.23v4.33h-15.41
			V358.28z"/>
		<path class="st0" d="M147.88,331.45h-6.47v-4.33h12.11l-0.28,31.17h5.64v4.33h-16.92v-4.33h5.64L147.88,331.45z M150.02,309.16
			c2.34,0,4.27,1.93,4.27,4.27c0,2.34-1.93,4.27-4.27,4.27c-2.34,0-4.27-1.93-4.27-4.27C145.75,311.08,147.68,309.16,150.02,309.16z
			"/>
		<path class="st0" d="M159.08,327.12h14.59v4.33h-4.27l8.19,22.77c0.34,0.96,0.55,2,0.76,3.03h0.14c0.21-1.03,0.41-2.06,0.76-3.03
			l8.39-22.77h-4.61v-4.33h14.17v4.33h-3.92l-12.25,31.17h-5.64l-12.32-31.17h-3.99V327.12z"/>
		<path class="st0" d="M205.2,345.35c0.21,7.29,3.37,13.42,13.48,13.42c3.85,0,7.7-1.17,10.66-2.68l-0.21,4.88
			c-2.61,1.31-8.12,2.48-11.7,2.48c-11.21,0-18.16-6.12-18.16-18.51c0-10.46,5.64-18.64,16.44-18.64
			c14.04,0,15.34,12.73,15.34,19.06H205.2z M225.15,341.01c0-5.57-3.51-10.39-9.43-10.39c-6.05,0-10.18,4.54-10.52,10.39H225.15z"/>
		<path class="st0" d="M241.94,331.45h-6.05v-4.33h11.7v1.93c0,2.06-0.41,6.26-0.76,9.15h0.07h0.14c1.38-5.23,3.23-11.7,12.04-11.7
			c0.48,0,3.3,0.28,3.58,0.55l-0.55,5.09c-0.96-0.34-2.48-0.55-3.85-0.55c-7.29,0-10.53,7.16-10.66,13.42l-0.28,13.28h5.99v4.33
			h-16.65v-4.33h5.02L241.94,331.45z"/>
		<path class="st0" d="M291.04,336.95h-5.09l-0.28-5.02c-1.31-1.1-4.61-1.31-6.26-1.31c-3.58,0-8.19,1.17-8.19,5.44
			c0,3.85,3.44,5.02,8.67,5.92c9.01,1.51,12.8,4.27,12.8,10.11c0,6.33-4.27,11.35-14.52,11.35c-3.85,0-9.97-0.96-12.18-2.13
			l-0.27-9.08h5.09l0.27,5.3c2.13,1.03,5.71,1.58,8.05,1.58c3.72,0,8.19-1.58,8.19-5.92c0-3.51-3.65-4.75-7.5-5.57
			c-9.49-2.06-14.24-3.72-14.24-10.66c0-5.71,3.79-10.66,13.97-10.66c2.96,0,8.46,0.96,11.21,2.13L291.04,336.95z"/>
		<path class="st0" d="M304.08,331.45h-6.47v-4.33h12.11l-0.28,31.17h5.64v4.33h-16.92v-4.33h5.64L304.08,331.45z M306.22,309.16
			c2.34,0,4.27,1.93,4.27,4.27c0,2.34-1.93,4.27-4.27,4.27c-2.34,0-4.27-1.93-4.27-4.27C301.95,311.08,303.88,309.16,306.22,309.16z
			"/>
		<path class="st0" d="M317.63,327.12h5.71l0.27-8.67l5.64-0.34l-0.27,9.01h11.15v4.33h-11.22c-0.14,5.92-0.27,11.9-0.27,17.82
			c0,5.09,0,9.5,5.44,9.5c2.89,0,5.5-0.83,7.02-1.44l-0.21,4.47c-1.79,0.89-5.09,1.65-7.98,1.65c-9.91,0-9.91-7.09-9.91-11.63
			c0-4.34,0.21-15.21,0.28-20.37h-5.64V327.12z"/>
		<path class="st0" d="M342.99,327.12h15v4.33h-4.47l8.46,22.08c0.41,1.24,0.83,2.89,0.96,3.72h0.14c0.14-0.83,0.55-2.48,0.96-3.72
			l7.91-22.08h-5.02v-4.33h14.17v4.33h-3.92l-10.87,29.93c-5.02,13.97-9.08,19.33-18.03,19.33c-1.72,0-3.16-0.27-4.2-0.62v-4.68
			c0.83,0.28,2.61,0.62,3.99,0.62c4.06,0,8.26-2.48,10.94-8.94l1.17-2.89l-13-32.75h-4.2V327.12z"/>
		<path class="st0" d="M48.16,290.41h5.66v6.56c2.21,1.31,6.42,1.79,9.46,1.79c6.9,0,11.46-3.18,11.46-8.98
			c0-12.91-26.52-5.25-26.52-22.58c0-5.87,3.45-13.74,17.88-13.74c3.52,0,9.94,0.9,12.98,2.28v9.74h-5.38v-6.01
			c-1.8-0.76-5.8-1.31-8.08-1.31c-5.18,0-11.05,2-11.05,8.36c0,12.29,26.52,4.63,26.52,22.44c0,10.63-9.12,14.5-18.44,14.5
			c-7.94,0-11.81-1.86-14.5-2.42V290.41z"/>
		<path class="st0" d="M85.46,267h5.73l0.28-8.7l5.66-0.34L96.85,267h11.19v4.35H96.78c-0.14,5.94-0.28,11.95-0.28,17.88
			c0,5.11,0,9.53,5.45,9.53c2.9,0,5.52-0.83,7.04-1.45l-0.21,4.49c-1.79,0.9-5.11,1.66-8.01,1.66c-9.94,0-9.94-7.11-9.94-11.67
			c0-4.35,0.21-15.26,0.28-20.44h-5.66V267z"/>
		<path class="st0" d="M129.29,266.17c10.84,0,17.26,7.46,17.26,17.68c0,11.33-6.42,19.61-17.26,19.61
			c-10.84,0-17.26-7.46-17.26-17.67C112.03,274.46,118.45,266.17,129.29,266.17z M129.29,298.76c7.6,0,11.33-6.21,11.33-13.95
			c0-7.73-3.73-13.95-11.33-13.95c-7.59,0-11.32,6.21-11.32,13.95C117.97,292.55,121.7,298.76,129.29,298.76z"/>
		<path class="st0" d="M181,301.73c-2.76,0.83-6.35,1.73-10.29,1.73c-14.09,0-18.58-9.32-18.58-18.64c0-13.6,9.87-18.64,17.82-18.64
			c3.94,0,7.87,0.48,11.53,1.79v9.32h-5.11v-5.59c-1.52-0.55-4.35-0.83-5.94-0.83c-10.29,0-12.36,8.15-12.36,13.95
			c0,1.93,0.28,13.95,13.53,13.95c3.52,0,6.35-0.97,9.67-2L181,301.73z"/>
		<path class="st0" d="M191.37,253.88h-6.91v-4.35h12.57l-0.14,33.14l13.6-11.19v-0.14h-4.97V267H221v4.35h-3.66l-14.78,12.02
			l16.09,14.92h3.87v4.35h-15.47v-4.35h4.28v-0.14L196.9,284.4l-0.14,13.88h4.7v4.35h-15.47v-4.35h5.11L191.37,253.88z"/>
		<path class="st0" d="M231.63,253.88h-6.91v-4.35h12.57l-0.07,18.71c0,1.59-0.41,5.11-0.69,6.63h0.14c1.52-5.39,7.25-8.7,12.64-8.7
			c9.81,0,12.22,6.63,12.22,13.39c0,6.08-0.28,13.19-0.28,18.71h5.25v4.35h-15.47v-4.35h4.56c0-5.53,0.27-11.33,0.27-17.06
			c0-3.45-0.14-10.36-8.08-10.36c-5.04,0-10.57,3.04-10.57,12.7l-0.21,14.71h5.25v4.35h-16.02v-4.35h5.11L231.63,253.88z"/>
		<path class="st0" d="M287.53,266.17c10.84,0,17.26,7.46,17.26,17.68c0,11.33-6.42,19.61-17.26,19.61
			c-10.84,0-17.26-7.46-17.26-17.67C270.27,274.46,276.69,266.17,287.53,266.17z M287.53,298.76c7.6,0,11.32-6.21,11.32-13.95
			c0-7.73-3.73-13.95-11.32-13.95c-7.6,0-11.32,6.21-11.32,13.95C276.2,292.55,279.93,298.76,287.53,298.76z"/>
		<path class="st0" d="M313.99,253.88h-6.91v-4.35h12.57l-0.28,48.75h5.66v4.35h-16.43v-4.35h5.11L313.99,253.88z"/>
		<path class="st0" d="M330.07,298.28h4.56l0.27-26.93h-5.73V267h11.39c0,1.38-0.07,3.32-0.21,4.28l-0.55,3.59h0.14
			c1.52-5.39,7.25-8.7,12.64-8.7c6.49,0,9.87,3.73,10.77,8.35h0.14c0.69-1.52,2.9-8.35,12.08-8.35c9.8,0,12.22,6.63,12.22,13.39
			c0,6.08-0.28,13.19-0.28,18.71h5.25v4.35H377.3v-4.35h4.56c0.07-5.8,0.27-11.53,0.27-17.26c0-5.18-1.11-10.15-7.73-10.15
			c-4.63,0-10.15,3.04-10.22,12.7l-0.14,14.71h5.11v4.35h-15.54v-4.35h4.55c0.07-5.8,0.28-11.53,0.28-17.26
			c0-5.18-1.1-10.15-7.73-10.15c-4.63,0-10.15,3.04-10.22,12.7l-0.14,14.71h5.18v4.35h-15.47V298.28z"/>
	</g>
</g>
</svg>
